<?xml version="1.0" standalone="no"?>
<!DOCTYPE svg PUBLIC "-//W3C//DTD SVG 1.1//EN" "http://www.w3.org/Graphics/SVG/1.1/DTD/svg11.dtd" >
<svg xmlns="http://www.w3.org/2000/svg">
<metadata>
Created by FontForge 20120731 at Wed May 25 15:08:08 2016
 By admin
</metadata>
<defs>
<font id="iconfont" horiz-adv-x="1024" >
  <font-face 
    font-family="iconfont"
    font-weight="500"
    font-stretch="normal"
    units-per-em="1024"
    panose-1="2 0 6 3 0 0 0 0 0 0"
    ascent="896"
    descent="-128"
    x-height="792"
    bbox="-0.355556 -212 1152 896"
    underline-thickness="50"
    underline-position="-100"
    unicode-range="U+0078-E633"
  />
<missing-glyph horiz-adv-x="374" 
d="M34 0v682h272v-682h-272zM68 34h204v614h-204v-614z" />
    <glyph glyph-name=".notdef" horiz-adv-x="374" 
d="M34 0v682h272v-682h-272zM68 34h204v614h-204v-614z" />
    <glyph glyph-name=".null" horiz-adv-x="0" 
 />
    <glyph glyph-name="nonmarkingreturn" horiz-adv-x="341" 
 />
    <glyph glyph-name="x" unicode="x" horiz-adv-x="1001" 
d="M281 543q-27 -1 -53 -1h-83q-18 0 -36.5 -6t-32.5 -18.5t-23 -32t-9 -45.5v-76h912v41q0 16 -0.5 30t-0.5 18q0 13 -5 29t-17 29.5t-31.5 22.5t-49.5 9h-133v-97h-438v97zM955 310v-52q0 -23 0.5 -52t0.5 -58t-10.5 -47.5t-26 -30t-33 -16t-31.5 -4.5q-14 -1 -29.5 -0.5
t-29.5 0.5h-32l-45 128h-439l-44 -128h-29h-34q-20 0 -45 1q-25 0 -41 9.5t-25.5 23t-13.5 29.5t-4 30v167h911zM163 247q-12 0 -21 -8.5t-9 -21.5t9 -21.5t21 -8.5q13 0 22 8.5t9 21.5t-9 21.5t-22 8.5zM316 123q-8 -26 -14 -48q-5 -19 -10.5 -37t-7.5 -25t-3 -15t1 -14.5
t9.5 -10.5t21.5 -4h37h67h81h80h64h36q23 0 34 12t2 38q-5 13 -9.5 30.5t-9.5 34.5q-5 19 -11 39h-368zM336 498v228q0 11 2.5 23t10 21.5t20.5 15.5t34 6h188q31 0 51.5 -14.5t20.5 -52.5v-227h-327z" />
    <glyph glyph-name="uniE600" unicode="&#xe600;" 
d="M512 -112q-205 0 -350.5 145.5t-145.5 350.5t145.5 350.5t350.5 145.5t350.5 -145.5t145.5 -350.5t-145.5 -350.5t-350.5 -145.5zM512 818q-180 0 -307 -127t-127 -307t127 -307t307 -127t307 127t127 307t-127 307t-307 127zM745 323h-294v294q0 13 8.5 21.5t21.5 8.5
t21.5 -8.5t8.5 -21.5v-234h234q13 0 21.5 -8.5t8.5 -21.5t-8.5 -21.5t-21.5 -8.5z" />
    <glyph glyph-name="uniE601" unicode="&#xe601;" 
d="M945 694l-93 -92l-123 123l93 92q12 13 30 13t31 -13l62 -62q13 -12 13 -30t-13 -31zM297 294l124 -123l-165 -41zM822 571l-370 -369l-124 123l370 369zM154 697v-671h672v484l87 88v-616q0 -18 -12.5 -31t-31.5 -13h-759q-18 0 -31 13t-13 31v759q0 18 13 31t31 13h619
l-88 -88h-487z" />
    <glyph glyph-name="uniE602" unicode="&#xe602;" 
d="M687 585.5q0 -7.5 -5 -13.5l-225 -225l225 -224q5 -6 5 -13.5t-5 -12.5l-29 -29q-6 -6 -13.5 -6t-12.5 6l-267 266q-5 6 -5 13.5t5 13.5l267 266q5 6 12.5 6t13.5 -6l29 -29q5 -5 5 -12.5z" />
    <glyph glyph-name="uniE603" unicode="&#xe603;" 
d="M669 347.5q0 -7.5 -6 -13.5l-266 -266q-6 -6 -13.5 -6t-12.5 6l-29 29q-6 5 -6 12.5t6 13.5l225 224l-225 225q-6 6 -6 13.5t6 12.5l29 29q5 6 12.5 6t13.5 -6l266 -266q6 -6 6 -13.5z" />
    <glyph glyph-name="uniE604" unicode="&#xe604;" 
d="M513 -61q91 0 173.5 35t142 95t95 142.5t35.5 173.5t-35.5 173.5t-95 142.5t-142 95t-173.5 35t-173.5 -35t-142.5 -95t-95 -142.5t-35 -173.5t35 -173.5t95 -142.5t142.5 -95t173.5 -35zM513 -125q-104 0 -198.5 40.5t-162.5 108.5t-108.5 162.5t-40.5 198.5t40.5 198.5
t108.5 162.5t162.5 108.5t198.5 40.5t198 -40.5t162.5 -108.5t109 -162.5t40.5 -198.5t-40.5 -198.5t-109 -162.5t-162.5 -108.5t-198 -40.5zM541 441h-64l-98 170q-6 10 -17 13t-21 -3t-13 -17t3 -21l81 -142h-67q-12 0 -20 -8.5t-8 -20t8 -19.5t20 -8h140v-84h-140
q-12 0 -20 -8.5t-8 -20t8 -19.5t20 -8h140v-112q0 -12 8 -20t19.5 -8t20 8t8.5 20v112h140q11 0 19.5 8t8.5 19.5t-8.5 20t-19.5 8.5h-140v84h140q11 0 19.5 8t8.5 20t-8.5 20t-19.5 8h-76l82 142q6 10 3 21t-13 17t-21 3t-17 -13z" />
    <glyph glyph-name="uniE605" unicode="&#xe605;" 
d="M512 -62q-91 0 -174 35.5t-143 95.5t-95.5 142.5t-35.5 174t35.5 174t95.5 142.5t143 95.5t174 35.5t174 -35.5t143 -95.5t95.5 -142.5t35.5 -174t-35.5 -174t-95.5 -142.5t-143 -95.5t-174 -35.5zM702 557l-269 -269l-111 111l-47 -48l158 -158l316 316z" />
    <glyph glyph-name="uniE606" unicode="&#xe606;" 
d="M762 341q0 14 10 24t24.5 10t24.5 -10t10 -24v-337q0 -15 -10 -25t-25 -10h-568q-14 0 -24 10t-10 25v337q0 14 10 24t24.5 10t24.5 -10t10 -24v-303h499v303zM123 331l389 389l389 -389q11 -10 25 -10t24 10t10 24.5t-10 24.5l-413 413q-10 10 -24.5 10t-24.5 -10
l-414 -413q-10 -10 -10 -24.5t10 -24.5q11 -10 25 -10t24 10z" />
    <glyph glyph-name="uniE607" unicode="&#xe607;" horiz-adv-x="1171" 
d="M1058 -23q44 36 69 84.5t25 103.5q0 106 -85.5 181t-207 75t-207 -75t-85.5 -181t85.5 -181t206.5 -75q72 0 134 28l86 -28zM1078 428q-5 118 -74 217.5t-185 156.5t-252 57q-104 0 -199 -35.5t-163.5 -95.5t-109 -142.5t-40.5 -174.5q0 -94 42 -178t117 -146l-31 -124
l138 56q114 -56 246 -56h3q-76 89 -76 202q0 89 48.5 165t133 120t183.5 44q122 0 219 -66z" />
    <glyph glyph-name="uniE608" unicode="&#xe608;" 
d="M863 413l-317 2v318q0 13 -9.5 22.5t-22.5 9.5t-22.5 -9.5t-9.5 -22.5v-318l-322 1q-14 0 -23 -9.5t-9.5 -22.5t9 -22.5t22.5 -9.5l323 -1v-319q0 -14 9.5 -23t22.5 -9t22.5 9t9.5 23v319l317 -2q13 0 22.5 9.5t9.5 23t-9 22.5t-23 9z" />
    <glyph glyph-name="uniE609" unicode="&#xe609;" 
d="M888 598q-10 9 -23 8.5t-22 -10.5l-427 -454l-233 230q-10 9 -23 9t-22.5 -9.5t-9.5 -23t10 -22.5l256 -253h1q1 -1 7 -4q0 -1 1 -1.5t2 -1.5q6 -2 12 -2t12 3q1 0 2 1t2 1q5 3 7 5v0l449 479q9 9 9 22.5t-10 22.5z" />
    <glyph glyph-name="uniE60A" unicode="&#xe60a;" 
d="M776 879h-528q-27 0 -46.5 -19.5t-19.5 -46.5v-858q0 -27 19.5 -46.5t46.5 -19.5h528q27 0 46.5 19.5t19.5 46.5v858q0 27 -19.5 46.5t-46.5 19.5zM248 829h528q7 0 11.5 -4.5t4.5 -11.5v-668h-560v668q0 7 4.5 11.5t11.5 4.5zM776 -61h-528q-7 0 -11.5 4.5t-4.5 11.5
v140h561v-140q-1 -7 -5.5 -11.5t-11.5 -4.5zM512 21zM463 21.5q0 20.5 14.5 35t34.5 14.5t34.5 -14.5t14.5 -35t-14.5 -35t-34.5 -14.5t-34.5 14.5t-14.5 35z" />
    <glyph glyph-name="uniE60B" unicode="&#xe60b;" 
d="M957 491.5q-6 18.5 -25 21.5l-271 42l-120 259q-9 18 -29 18q-21 0 -29 -18l-122 -258l-271 -41q-19 -3 -25.5 -21.5t7.5 -32.5l196 -202l-47 -285q-3 -20 13.5 -31.5t33.5 -1.5l242 133l242 -134q7 -4 15 -4h1q13 0 22.5 9.5t9.5 22.5q0 6 -2 11l-45 279l197 201
q13 14 7 32.5z" />
    <glyph glyph-name="uniE60C" unicode="&#xe60c;" 
d="M767 -64q-8 0 -15 4l-242 134l-242 -133q-17 -10 -33.5 1.5t-13.5 31.5l47 285l-196 202q-14 14 -8 32.5t25 21.5l156 26q13 3 23.5 -5t13 -21t-5.5 -23.5t-21 -13.5l-95 -16l166 -170q11 -12 8 -28l-39 -235l200 110q15 8 31 -1l199 -110l-38 236q-3 16 9 27l164 169
l-225 34q-17 3 -24 18l-100 213l-100 -212q-5 -12 -17.5 -16.5t-24.5 1t-16.5 18t0.5 24.5l130 274q8 18 29 18q20 0 29 -18l120 -259l271 -42q19 -3 25 -21.5t-7 -32.5l-197 -201l46 -285q3 -20 -14 -31q-8 -6 -18 -6z" />
    <glyph glyph-name="uniE60D" unicode="&#xe60d;" 
d="M770 578h-519q-7 0 -12.5 -6t-5.5 -13.5t5.5 -13.5t12.5 -6h519q7 0 12.5 6t5.5 13.5t-5.5 13.5t-12.5 6zM788 674h-555q-8 0 -13.5 -5.5t-5.5 -13.5t5.5 -13.5t13.5 -5.5h555q8 0 13.5 5.5t5.5 13.5t-5.5 13.5t-13.5 5.5zM945 476l-73 273q0 1 -1 2q-9 25 -25 37.5
t-48 12.5l-577 -2q-52 0 -72 -50q-1 -1 -1 -2l-73 -279q-9 -9 -9 -20v-437q0 -15 14.5 -28t30.5 -13h814q15 0 22.5 12t7.5 29v437q0 19 -10 28zM733 167h-445v111h445v-111zM677 445h-59h-206h-68h-222l61 291q6 14 13.5 19.5t24.5 5.5l578 2q18 0 25 -5.5t13 -19.5
l62 -293h-222zM677 445z" />
    <glyph glyph-name="uniE60E" unicode="&#xe60e;" horiz-adv-x="1025" 
d="M800 224q-78 0 -126 -61l-301 163q11 28 11 58q0 22 -6 44l296 178q48 -62 126 -62q66 0 113 47t47 113t-47 113t-113 47t-113 -47t-47 -113q0 -19 4 -37l-298 -180q-48 57 -122 57q-66 0 -113 -47t-47 -113t47 -113t113 -47q62 0 108 42l311 -169q-3 -17 -3 -33
q0 -66 47 -113t113 -47t113 47t47 113t-47 113t-113 47zM800 800q40 0 68 -28t28 -68t-28 -68t-68 -28t-68 28t-28 68t28 68t68 28zM128 384q0 40 28 68t68 28t68 -28t28 -68t-28 -68t-68 -28t-68 28t-28 68zM800 -32q-40 0 -68 28t-28 68t28 68t68 28t68 -28t28 -68
t-28 -68t-68 -28z" />
    <glyph glyph-name="uniE60F" unicode="&#xe60f;" 
d="M931 519v69q0 22 -14 39t-35 21v43q0 23 -16.5 39.5t-40.5 16.5h-626q-23 0 -40 -16.5t-17 -39.5v-43q-21 -4 -35 -21t-14 -39v-69q-21 -6 -35.5 -23.5t-14.5 -40.5v-369q0 -27 19.5 -46.5t47.5 -19.5h805q27 0 46.5 19.5t19.5 46.5v369q0 23 -14 40.5t-36 23.5zM199 701
h626q10 0 10 -10v-42h-646v42q0 10 10 10zM155 603h715q6 0 10.5 -4.5t4.5 -10.5v-67h-745v67q0 6 4.5 10.5t10.5 4.5zM934 86q0 -8 -5.5 -13.5t-13.5 -5.5h-805q-8 0 -14 5.5t-6 13.5v369q0 8 6 13.5t14 5.5h805q8 0 13.5 -5.5t5.5 -13.5v-369zM235.5 259q29.5 0 50.5 21
t21 50.5t-21 50.5t-50.5 21t-50.5 -21t-21 -50.5t21 -50.5t50.5 -21zM837 354h-440q-10 0 -17 -7t-7 -16.5t7 -16.5t17 -7h440q10 0 17 7t7 16.5t-7 16.5t-17 7zM837 197h-650q-10 0 -16.5 -7t-6.5 -16.5t6.5 -16.5t16.5 -7h650q10 0 17 7t7 16.5t-7 16.5t-17 7z" />
    <glyph glyph-name="uniE610" unicode="&#xe610;" 
d="M797 475.5q0 -7.5 -6 -13.5l-266 -266q-6 -6 -13.5 -6t-12.5 6l-267 266q-5 6 -5 13.5t5 13.5l29 28q6 6 13.5 6t12.5 -6l225 -224l224 224q6 6 13.5 6t13.5 -6l28 -28q6 -6 6 -13.5z" />
    <glyph glyph-name="uniE611" unicode="&#xe611;" 
d="M797 219.5q0 -7.5 -6 -13.5l-28 -28q-6 -6 -13.5 -6t-13.5 6l-224 224l-225 -224q-5 -6 -12.5 -6t-13.5 6l-29 28q-5 6 -5 13.5t5 13.5l267 266q5 6 12.5 6t13.5 -6l266 -266q6 -6 6 -13.5z" />
    <glyph glyph-name="uniE612" unicode="&#xe612;" 
d="M893.5 524.5q-8.5 19.5 -29.5 19.5h-248l55 249q5 24 -16 35.5t-38 -5.5l-480 -480q-15 -15 -6.5 -35t29.5 -20h242l-112 -309q-4 -11 -0.5 -21.5t13.5 -16.5q8 -5 17 -5q13 0 23 10l544 543q15 16 6.5 35.5z" />
    <glyph glyph-name="uniE613" unicode="&#xe613;" horiz-adv-x="1025" 
d="M732 311h174q-3 -4 -6 -6.5t-5 -3.5l-2 -3l-356 -343q-10 -10 -25 -10t-25 10l-357 344l-12 12h211q13 0 23 7.5t13 19.5l40 161l108 -381q4 -12 13.5 -19.5t22.5 -7.5q12 0 21.5 7.5t13.5 19.5l83 277l32 -64q11 -20 33 -20zM1024 555q0 -82 -59 -171h-211l-63 126
q-5 10 -15 15.5t-20 4.5q-26 -3 -32 -26l-74 -246l-112 392q-4 12 -14 19.5t-22.5 7.5t-22 -8t-12.5 -20l-66 -265h-242q-59 89 -59 172q0 125 72.5 196t200.5 71q36 0 72.5 -12.5t68.5 -33t54.5 -39t43.5 -38.5q20 20 43 38.5t55 39t68.5 33t72.5 12.5q128 0 200.5 -71
t72.5 -196v-1z" />
    <glyph glyph-name="uniE614" unicode="&#xe614;" 
d="M914 187q0 -15 -5.5 -40t-11.5 -39q-12 -29 -70 -61q-54 -29 -106 -29q-16 0 -30.5 2t-33 7.5t-27 8.5t-31.5 11.5t-28 10.5q-56 20 -100 47q-73 45 -151 123t-123 151q-28 44 -48 100q-1 6 -10 28.5t-12 31.5t-8 27.5t-7 33t-2 29.5q0 53 29 106q32 58 60 70
q15 6 39.5 12t40.5 6q8 0 12 -2q10 -3 30 -43q6 -11 17 -31t20 -36.5t18 -30.5q2 -2 10 -14t12 -20.5t4 -16.5q0 -11 -16 -28.5t-35.5 -31.5t-35.5 -30t-16 -26q0 -6 3 -13.5t5 -11.5t8 -13.5t6 -10.5q44 -79 99.5 -135t134.5 -99q1 -1 10.5 -7t13.5 -8t12 -4.5t13 -2.5
q10 0 26 16t30.5 35t31.5 35.5t28 16.5q8 0 16.5 -4t20.5 -12.5t14 -9.5q15 -9 31 -18t36 -20t31 -17q40 -20 43 -30q2 -4 2 -12v-1z" />
    <glyph glyph-name="uniE616" unicode="&#xe616;" 
d="M512 -207l-28 27q-25 23 -56 54.5t-93 103t-109 137t-84 145.5t-37 140q0 110 54.5 204t148.5 148.5t204 54.5t204 -54.5t148.5 -148.5t54.5 -204q0 -60 -37 -140t-84 -145.5t-109 -137t-93 -103t-56 -54.5zM512 725q-88 0 -163 -43.5t-118.5 -118.5t-43.5 -163
q0 -49 34 -118t88 -140t104 -128.5t99 -106.5q49 49 99 106.5t104 128.5t88 140t34 118q0 88 -43.5 163t-118.5 118.5t-163 43.5zM513 181q-91 0 -155 64.5t-64 155t64 155t155 64.5t155.5 -64.5t64.5 -155t-64.5 -155t-155.5 -64.5zM513 538q-57 0 -97 -40.5t-40 -97
t40 -97t97 -40.5t97 40.5t40 97t-40 97t-97 40.5z" />
    <glyph glyph-name="uniE617" unicode="&#xe617;" 
d="M671.5 504q-57.5 0 -98.5 -40.5t-41 -98.5t41 -98.5t98.5 -40.5t98 40.5t40.5 98.5t-40.5 98.5t-98 40.5zM671.5 294q-29.5 0 -50.5 20.5t-21 50.5t21 51t50.5 21t50.5 -21t21 -51t-21 -50.5t-50.5 -20.5zM1024 614q0 43 -30.5 73.5t-73.5 30.5q-35 0 -63 -21t-37 -54
q-70 37 -149 37h-637q-14 0 -24 -10t-10 -24v-140q0 -12 7.5 -21.5t18.5 -11.5l332 -79q-2 -14 -2 -29q0 -130 92.5 -222.5t222.5 -92.5t222.5 92.5t92.5 222.5q0 79 -37 149q33 9 54 37t21 63zM671 118q-102 0 -174.5 72.5t-72.5 174.5q0 25 5 48q2 14 -5 25.5t-21 14.5
l-335 79v80h603q102 0 174.5 -72.5t72.5 -174.5t-72.5 -174.5t-174.5 -72.5zM920 577q-15 0 -26 11t-11 26t11 25.5t26 10.5t25.5 -10.5t10.5 -25.5t-10.5 -26t-25.5 -11z" />
    <glyph glyph-name="uniE618" unicode="&#xe618;" 
d="M960 -89h-896v778h896v-778zM108 -45h808v690h-808v-690zM258 325h426v-44h-426v44zM98 472h828v-45h-828v45zM266 190h288v-44h-288v44z" />
    <glyph glyph-name="uniE619" unicode="&#xe619;" 
d="M309 681q-69 -13 -125.5 -46.5t-91.5 -78.5t-51.5 -99.5t-10 -107t38 -103t86.5 -86.5q10 -6 9 -13.5t-15 -48.5l-16 -48l115 61l31 -7q54 -14 100 -14h16l-6 22q-16 60 2 120.5t61 105.5t108.5 73.5t139.5 28.5h27l-5 19q-22 76 -85 133t-150.5 81t-177.5 8zM284 537
q23 -16 24 -43t-21 -41q-17 -11 -35.5 -8.5t-29.5 14.5t-14.5 29t8.5 35q11 15 32 19.5t36 -5.5zM527 537q17 -12 21 -31t-3.5 -34.5t-24.5 -23.5t-37 -1q-30 12 -32.5 44t25.5 47q11 6 26 5.5t25 -6.5zM636 415q-106 -20 -171.5 -92t-61.5 -164q3 -61 37.5 -113t88.5 -82.5
t122.5 -42t137.5 9.5l22 6l46 -25q46 -25 48 -23q1 3 -11 40q-11 34 -10.5 40t14.5 16q54 39 78 91t18.5 103.5t-35.5 100t-76.5 83t-111.5 49.5t-135 3zM631 282q9 -7 13 -20t0 -24q-8 -25 -35 -26t-37 22q-11 27 11.5 45.5t47.5 2.5zM829 278q14 -14 12 -33.5t-19 -28.5
q-26 -13 -46.5 6.5t-7.5 45.5q9 16 28 19.5t33 -9.5zM564 -42z" />
    <glyph glyph-name="uniE61A" unicode="&#xe61a;" 
d="M512 896q-139 0 -257 -68.5t-186.5 -186.5t-68.5 -257t68.5 -257t186.5 -186.5t257 -68.5t257 68.5t186.5 186.5t68.5 257t-68.5 257t-186.5 186.5t-257 68.5zM512 0q-159 0 -271.5 112.5t-112.5 271.5t112.5 271.5t271.5 112.5t271.5 -112.5t112.5 -271.5t-112.5 -271.5
t-271.5 -112.5zM606 513l-94 191l-94 -191l-210 -30l152 -148l-36 -210l188 99l188 -99l-36 209l152 149z" />
    <glyph glyph-name="uniE61B" unicode="&#xe61b;" 
d="M1020 410q-6 19 -22 32t-37 17l-266 39l-116 241q-9 19 -27.5 30t-39.5 11t-39.5 -11t-27.5 -30l-116 -241l-266 -39q-21 -4 -37 -17t-22 -32q-14 -42 17 -73l195 -195l-45 -270q-3 -21 5 -40t25 -31q20 -13 43 -13q19 0 36 9l232 125l232 -125q17 -9 36 -9q23 0 43 13
q17 12 25 31t5 40l-45 270l195 195q31 31 17 73zM755 192q-26 -26 -20 -62l45 -270l-232 125q-17 9 -36 9t-36 -9l-232 -125l45 270q6 36 -20 62l-195 195l266 40q39 6 56 41l116 240l116 -240q17 -35 56 -41l266 -40z" />
    <glyph glyph-name="uniE61C" unicode="&#xe61c;" 
d="M700 372v-53h53q27 0 27 27q0 6 -1 10.5t-7.5 10t-18.5 5.5h-53zM762 264h-36v-106h-80v268h134q22 0 33 -3t22 -14q26 -25 26 -64q0 -31 -28 -58q-23 -23 -71 -23zM592 426v-268h-80v268h80zM378 158h-81l-107 268h80l67 -186l68 186h80zM159 613q-38 0 -66 -21t-28 -59
v-458q0 -33 24 -59.5t58 -26.5h730q33 0 57.5 26.5t24.5 59.5v458q0 37 -33.5 58.5t-72.5 21.5h-694z" />
    <glyph glyph-name="uniE61E" unicode="&#xe61e;" 
d="M566 219h10q1 4 2 9l-82 -37q2 -53 40 -89.5t91 -36.5q54 0 92.5 38.5t38.5 92.5t-39 92q0 1 -1.5 2.5t-2.5 1.5l-28 -13l-32 -15l4 -2q14 -10 14 -25q0 -5 -3.5 -8.5t-8.5 -3.5t-7 3t-5 8q-3 7 -7 11t-13 4q-1 0 -2 -1h-1l-13 -5q0 -1 -0.5 -1t-1.5 -1q-6 -8 -7 -24h32
q2 0 2 -3t-2 -6.5t-3 -3.5h-30v-10v-6h33q2 0 2 -3t-2 -6.5t-3 -3.5h-30q4 -37 24 -37q7 0 13 3.5t12 17.5q4 8 6.5 10t5.5 2q6 0 9.5 -3.5t3.5 -9.5q0 -15 -14.5 -27.5t-35.5 -12.5q-20 0 -34 14t-17 43h-13q-2 0 -2 2.5t2 6.5t3 4h9v3v13h-12q-2 0 -2 2.5t2 6.5t3 4z
M956 384.5q-7 6.5 -17 6.5h-74q-2 -31 -29 -44l-6 -2h86v-298h-578v70l-47 -21v-72q0 -10 7 -17t16 -7h625q10 0 17 7t7 17v344q0 10 -7 16.5zM819 409q1 7 -1 13l-145 312q-4 9 -13 12q-4 2 -8 2v0h-1q-5 -1 -9 -2l-567 -263q-9 -4 -12 -13t1 -18l144 -312q4 -9 13 -12
q4 -2 8 -2q5 0 10 2l567 263q12 5 13 18zM241 181l-125 270l525 242l125 -270zM403.5 470.5q-2.5 -5.5 0.5 -12.5q3 -6 8.5 -7.5t13.5 -1.5l-14 32q-6 -5 -8.5 -10.5zM464.5 429q-6.5 2 -16.5 1l10 -21l7 -16q8 6 10 13v2v1q1 6 -1 11q-3 7 -9.5 9zM440 568h-3h-2
q-26 -1 -50 -12q-23 -11 -41 -30q-17 -19 -27 -43q-13 -36 -4 -74q3 -14 9 -27q4 -9 11 -19q18 -26 46.5 -41.5t60.5 -15.5q1 0 3 0.5t3 0.5q26 1 49 12q24 11 42 30q5 6 11 14q9 14 15 29q3 7 5 17q10 43 -9 83q-16 35 -48.5 55.5t-70.5 20.5zM496 409q-1 -9 -6 -16
q-6 -9 -18 -16l7 -13v-1q2 -5 2 -7q0 -3 -3 -4q-3 -2 -5 -0.5t-4 5.5l-7 15q-10 -3 -19 -3t-16 3t-12 7.5t-8 9.5q-1 4 0.5 9t6.5 7q3 1 6.5 0.5t5.5 -2.5l9 -9q3 -3 8 -4.5t11 -0.5l-18 39q-12 -2 -21.5 -2t-17 5t-12.5 16q-7 14 -2 27.5t21 22.5l-5 12q-3 7 2 9.5t8 -4.5
l6 -12q9 3 16.5 3t15.5 -3q5 -2 9 -5.5t6 -7.5t0.5 -8.5t-6.5 -6.5q-8 -4 -14 4q-8 9 -20 7l16 -34q12 2 19 2q7 1 14 -1t13 -7t9 -13q4 -10 4 -20l-1 -1v-2z" />
    <glyph glyph-name="uniE620" unicode="&#xe620;" 
d="M513 800q-89 0 -170 -34.5t-139.5 -93.5t-93 -140t-34.5 -169.5t34.5 -169.5t93 -140t139.5 -93.5t170 -34.5t170 34.5t139.5 93.5t93.5 140t35 169.5t-35 169.5t-93.5 140t-139.5 93.5t-170 34.5zM513 6q-115 0 -209 68l493 503q73 -95 73 -215q0 -96 -48 -178
t-130 -130t-179 -48zM513 719q123 0 219 -76l-495 -505q-80 98 -80 224q0 97 47.5 179t130 130t178.5 48z" />
    <glyph glyph-name="uniE623" unicode="&#xe623;" 
d="M275 119q39 -26 98 -26q67 0 103.5 35.5t36.5 82.5q0 29 -15 53t-40 37q41 30 41 79q0 40 -29 68.5t-84 28.5q-58 0 -99 -29q-9 -7 -5 -18l13 -33q2 -7 9.5 -9.5t13.5 2.5q27 19 59 19q45 0 45 -36q0 -21 -19.5 -32t-41.5 -11h-26q-6 0 -10.5 -4.5t-4.5 -10.5v-35
q0 -6 4.5 -10.5t10.5 -4.5h26q8 0 17 -1.5t23.5 -6t23.5 -16.5t9 -29q1 -21 -13 -35q-16 -16 -49 -16q-36 0 -68 19q-6 3 -13 0.5t-9 -8.5l-13 -36q-4 -11 6 -17zM568 377q1 -7 8 -10t13 1l39 20v-274q0 -6 4.5 -10.5t10.5 -4.5h45q6 0 10.5 4.5t4.5 10.5v342q0 6 -4.5 10.5
t-10.5 4.5h-40q-4 0 -7 -1l-75 -40q-10 -6 -7 -18zM867 812h-711q-39 0 -66 -27.5t-27 -65.5v-713q0 -39 27 -66t66 -27h711q39 0 66 27t27 66v713q0 38 -27 65.5t-66 27.5zM706 745q15 0 25.5 -11t10.5 -25.5t-10.5 -25t-25.5 -10.5t-25.5 10.5t-10.5 25t10.5 25.5t25.5 11
zM319 745q15 0 25.5 -10.5t10.5 -25.5t-10.5 -25.5t-25.5 -10.5t-25.5 10.5t-10.5 25.5t10.5 25.5t25.5 10.5zM900 6q0 -14 -9.5 -23.5t-23.5 -9.5h-711q-14 0 -23.5 9.5t-9.5 23.5v612h777v-612z" />
    <glyph glyph-name="uniE625" unicode="&#xe625;" 
d="M873 650.5q-11 8.5 -24 4.5q-22 -6 -56 -6q-156 0 -262 151q-7 11 -21.5 11t-22.5 -11q-106 -151 -262 -151q-38 0 -56 6q-13 4 -24 -4.5t-11 -21.5v-255q0 -73 21 -137.5t51 -109.5t72 -83.5t77 -60.5t73 -40t52 -22.5t22 -7.5q4 -1 7.5 -1t6.5 1q8 3 22 7.5t52 22.5
t73 40t77 60.5t72.5 83.5t51 109.5t20.5 137.5v255q0 13 -11 21.5z" />
    <glyph glyph-name="uniE627" unicode="&#xe627;" 
d="M949 168q-23 9 -57.5 21t-57.5 20.5t-46.5 18t-36.5 18.5t-16 18v50q43 0 77 8t46 16l13 8q-18 10 -31.5 56t-17.5 87l-5 41q0 74 -53 123q-19 22 -51 32q-26 9 -52 9q-28 0 -55 -10q-26 -9 -43 -26l-2 -2l-1 -1q15 -35 15 -79v-60q12 -23 12 -48q0 -41 -29 -70
q-14 -42 -38 -75l6 -4q29 -5 61 -5v-32q61 -34 130 -61q21 -7 33 -25.5t12 -39.5v-83q0 -12 -4 -24h184q9 0 15 6.5t6 15.5v76q0 15 -14 21zM701 178q-16 6 -34 13l-1 1q-2 0 -2 1q-17 7 -33 14l-3 2q-15 7 -32 15q-1 0 -2 1h-1q-16 8 -30 16q-87 48 -95 73v20l1 1v1
q16 17 28 39q1 0 1.5 1t0.5 2q6 12 9 20q6 13 9 26q23 16 23 44q0 19 -12 34v74q0 8 -1 17v1q-5 52 -40 81.5t-99 29.5q-70 0 -105.5 -35t-35.5 -94v-74q-12 -15 -12 -34q0 -28 23 -44q15 -56 49 -90v-20q-7 -23 -78 -63.5t-154 -72.5q-15 -6 -15 -22v-83q0 -10 6.5 -17
t16.5 -7h609q10 0 16.5 7t6.5 17v83q1 16 -14 22z" />
    <glyph glyph-name="uniE628" unicode="&#xe628;" 
d="M946.5 779q-4.5 4 -9.5 1l-864 -442q-5 -2 -4.5 -8t6.5 -8l273 -87q5 -2 8 2l416 355l-319 -378q-3 -3 -1.5 -8t5.5 -6l321 -98h2q3 0 5 1q3 2 4 6l160 661q2 5 -2.5 9zM551 104l-89 27q-4 1 -7.5 -1.5t-3.5 -7.5v-167q0 -7 6 -8q2 -1 3 -1q4 0 7 4l89 140q2 4 0.5 8
t-5.5 6z" />
    <glyph glyph-name="uniE62B" unicode="&#xe62b;" 
d="M504 460q-58 0 -99 -41t-41 -98.5t41 -98.5t99 -41t99 41t41 98.5t-41 98.5t-99 41zM959 500q-1 13 -6 27t-15 28.5t-28 23.5t-42 9h-124q-3 25 -9.5 48t-18.5 44.5t-33 34.5t-48 13h-248q-5 -1 -11.5 -2.5t-19 -10.5t-22.5 -22.5t-19 -41t-11 -63.5l-150 -1
q-14 0 -29.5 -5.5t-31.5 -16t-26 -30.5t-10 -46v-361q-3 -39 21 -65q25 -27 70 -27h722q31 3 60 25t29 66v371v2zM504 108q-88 0 -150 62.5t-62 150t62 150t150 62.5t150 -62.5t62 -150t-62 -150t-150 -62.5zM798.5 400q-16.5 0 -27.5 11t-11 27.5t11 27.5t27.5 11t27.5 -11
t11 -27.5t-11 -27.5t-27.5 -11z" />
    <glyph glyph-name="uniE62C" unicode="&#xe62c;" 
d="M955 458q0 15 -13 25l-415 303q-18 13 -37 0l-415 -303q-12 -10 -12 -25v-504q0 -13 9 -22t22 -9h830q12 0 21.5 9t9.5 22v504zM509 723l384 -281v-37l-264 -190l210 -134q11 -7 14 -19.5t-4 -23.5q-9 -14 -26 -14q-9 0 -17 4l-297 187l-297 -187q-7 -4 -16 -4
q-18 0 -27 14q-7 11 -4 23.5t14 19.5l210 134l-264 190v37z" />
    <glyph glyph-name="uniE632" unicode="&#xe632;" 
d="M951 238l-127 174q-8 11 -22 11t-22 -11l-128 -177q-10 -14 -2.5 -28.5t23.5 -14.5h56q-40 -60 -105 -92t-138 -25q-95 8 -163 75q-16 15 -38.5 15t-38 -16t-15.5 -38.5t16 -38.5q96 -94 230 -105q16 -2 31 -2q112 0 206 62t138 165h79q12 0 19.5 8t7.5 19t-7 19z
M237 302l129 177q10 14 2.5 28.5t-24.5 14.5h-56q39 60 104.5 91.5t138.5 25.5q96 -8 164 -76q16 -15 38.5 -15t38.5 16t15.5 38.5t-16.5 37.5q-96 96 -231 107q-121 11 -224.5 -51.5t-150.5 -173.5h-79q-16 0 -23.5 -14.5t2.5 -28.5l128 -177q8 -11 22 -11t22 11z" />
    <glyph glyph-name="uniE633" unicode="&#xe633;" 
d="M162 620h704v-441h62v473q0 13 -9 22t-22 9h-766q-13 0 -22.5 -9t-9.5 -22v-473h63v441zM562 126v-12q0 -7 -5 -12t-12 -5h-63q-7 0 -12 5t-5 12v12h-402v-57q0 -13 9.5 -22t22.5 -9h838q13 0 22 9t9 22v57h-402zM555 329l-99 99q-6 -9 -14 -15l99 -98q6 8 14 14z
M628 316l98 104q-8 6 -14 14l-99 -105q9 -5 15 -13zM319 368l60 49q-8 6 -13 15l-59 -49q7 -6 12 -15zM412.5 490q-13.5 0 -23.5 -9.5t-10 -23.5q0 -6 3 -12q3 -10 12 -15q8 -6 18 -6q8 0 15 4q10 5 14 14q4 7 4 15q0 14 -9.5 23.5t-23 9.5zM584.5 252q13.5 0 23.5 9.5
t10 23.5q0 8 -4 16q-6 9 -15 13q-7 4 -14 4q-8 0 -15 -4q-10 -5 -14 -14q-4 -7 -4 -15q0 -14 9.5 -23.5t23 -9.5zM740 435q7 -3 14 -3q14 0 23.5 9.5t9.5 23t-9.5 23.5t-23 10t-23.5 -10t-10 -23q0 -9 5 -16q5 -9 14 -14zM291 371q-9 6 -19 6q-14 0 -23.5 -9.5t-9.5 -23.5
t9.5 -23.5t23 -9.5t23.5 9.5t10 23.5q0 5 -2 10q-4 10 -12 17z" />
  </font>
</defs>
</svg>
